# xmcd CD database file
#
# Track frame offsets:
#	150
#	16034
#	26541
#	40958
#	51564
#	67075
#	82673
#	100012
#	116421
#	130176
#	143409
#	156086
#	171738
#	184476
#	208175
#
# Disc length: 3093 seconds
#
# Revision: 0
# Processed by: cddbd v1.5PL3 Copyright (c) Steve Scherf et al.
# Submitted via: CDex 1.51
#
DISCID=cd0c130f
DTITLE=沙耶の唄 - 沙耶の唄 ORIGINAL SOUNDTRACK
DYEAR=2004
DGENRE=Game
TTITLE0=SCHIZOPHRENIA
TTITLE1=SABBATH
TTITLE2=SEEK
TTITLE3=SPOOKY SCAPE
TTITLE4=SONG OF SAYA ?
TTITLE5=SONG OF SAYA ?
TTITLE6=SIN
TTITLE7=SUNSET
TTITLE8=SHAPESHIFT
TTITLE9=SCARE SHADOW
TTITLE10=SCREAM
TTITLE11=SAVAGE
TTITLE12=SILENT SORROW
TTITLE13=沙耶の唄【歌：いとうかなこ】
TTITLE14=ガラスのくつ【歌：いとうかなこ】
EXTD=YEAR: 2004
EXTT0=
EXTT1=
EXTT2=
EXTT3=
EXTT4=
EXTT5=
EXTT6=
EXTT7=
EXTT8=
EXTT9=
EXTT10=
EXTT11=
EXTT12=
EXTT13=
EXTT14=
PLAYORDER=
